<svg width="51" height="50" viewBox="0 0 51 50" fill="none" xmlns="http://www.w3.org/2000/svg">
<path fill-rule="evenodd" clip-rule="evenodd" d="M39.8132 17.3231C41.3198 18.7809 42.1725 20.7862 42.1773 22.8826C42.1756 26.8338 39.2008 30.1507 35.273 30.5807C35.2151 30.5887 35.1567 30.5927 35.0982 30.5928C34.3926 30.5969 33.8058 30.0509 33.7591 29.3468C33.7125 28.6427 34.2221 28.0241 34.9221 27.9351C37.5149 27.6653 39.4904 25.4893 39.509 22.8826C39.5138 21.5093 38.9543 20.1944 37.9614 19.2457C36.9824 18.2881 35.6497 17.7803 34.2817 17.8435C33.7453 17.8779 33.2442 17.5744 33.0263 17.083C31.5484 13.9457 28.1312 12.21 24.7261 12.8671C21.3209 13.5242 18.7949 16.4068 18.5906 19.8687C18.5672 20.255 18.3773 20.6121 18.0701 20.8473C17.7628 21.0826 17.3686 21.1729 16.9896 21.0948C15.9692 20.883 14.9076 21.1412 14.0984 21.7979C13.2905 22.4528 12.8225 23.4383 12.8257 24.4783C12.7645 25.3588 13.0735 26.2248 13.6782 26.8678C14.4828 27.563 15.5126 27.9423 16.576 27.9351C17.0526 27.9279 17.4969 28.1756 17.7414 28.5848C17.9859 28.9941 17.9936 29.5026 17.7614 29.919C17.5293 30.3354 17.0927 30.5963 16.616 30.6034C14.8433 30.5883 13.1355 29.9341 11.8064 28.7609C10.6881 27.6229 10.0911 26.0724 10.1573 24.4783C10.1604 21.2677 12.6424 18.6045 15.8449 18.3758C15.9941 18.3645 16.1177 18.2556 16.1477 18.109C17.0498 14.004 20.366 10.8655 24.5143 10.1906C28.6626 9.51567 32.8027 11.4411 34.9595 15.0484C35.014 15.1394 35.1087 15.1989 35.2143 15.2085C36.9434 15.3687 38.566 16.1148 39.8132 17.3231ZM25.2241 20.9828C25.7451 20.4619 26.5896 20.4619 27.1106 20.9828L31.7802 25.6577C32.1616 26.0392 32.2757 26.613 32.0692 27.1115C31.8628 27.6099 31.3764 27.935 30.8369 27.9351H28.5021C28.4135 27.9347 28.3285 27.9698 28.2659 28.0324C28.2032 28.095 28.1682 28.1801 28.1686 28.2686V37.9413C28.1686 39.0466 27.2726 39.9426 26.1673 39.9426C25.0621 39.9426 24.1661 39.0466 24.1661 37.9413V28.2686C24.1664 28.1801 24.1314 28.095 24.0688 28.0324C24.0061 27.9698 23.9211 27.9347 23.8325 27.9351H21.4977C20.9558 27.9372 20.4665 27.6113 20.2596 27.1104C20.0527 26.6096 20.1692 26.0334 20.5545 25.6523L25.2241 20.9828Z" fill="#064089"/>
<mask id="mask0_1444_30572" style="mask-type:alpha" maskUnits="userSpaceOnUse" x="10" y="10" width="33" height="30">
<path fill-rule="evenodd" clip-rule="evenodd" d="M39.8132 17.3231C41.3198 18.7809 42.1725 20.7862 42.1773 22.8826C42.1756 26.8338 39.2008 30.1507 35.273 30.5807C35.2151 30.5887 35.1567 30.5927 35.0982 30.5928C34.3926 30.5969 33.8058 30.0509 33.7591 29.3468C33.7125 28.6427 34.2221 28.0241 34.9221 27.9351C37.5149 27.6653 39.4904 25.4893 39.509 22.8826C39.5138 21.5093 38.9543 20.1944 37.9614 19.2457C36.9824 18.2881 35.6497 17.7803 34.2817 17.8435C33.7453 17.8779 33.2442 17.5744 33.0263 17.083C31.5484 13.9457 28.1312 12.21 24.7261 12.8671C21.3209 13.5242 18.7949 16.4068 18.5906 19.8687C18.5672 20.255 18.3773 20.6121 18.0701 20.8473C17.7628 21.0826 17.3686 21.1729 16.9896 21.0948C15.9692 20.883 14.9076 21.1412 14.0984 21.7979C13.2905 22.4528 12.8225 23.4383 12.8257 24.4783C12.7645 25.3588 13.0735 26.2248 13.6782 26.8678C14.4828 27.563 15.5126 27.9423 16.576 27.9351C17.0526 27.9279 17.4969 28.1756 17.7414 28.5848C17.9859 28.9941 17.9936 29.5026 17.7614 29.919C17.5293 30.3354 17.0927 30.5963 16.616 30.6034C14.8433 30.5883 13.1355 29.9341 11.8064 28.7609C10.6881 27.6229 10.0911 26.0724 10.1573 24.4783C10.1604 21.2677 12.6424 18.6045 15.8449 18.3758C15.9941 18.3645 16.1177 18.2556 16.1477 18.109C17.0498 14.004 20.366 10.8655 24.5143 10.1906C28.6626 9.51567 32.8027 11.4411 34.9595 15.0484C35.014 15.1394 35.1087 15.1989 35.2143 15.2085C36.9434 15.3687 38.566 16.1148 39.8132 17.3231ZM25.2241 20.9828C25.7451 20.4619 26.5896 20.4619 27.1106 20.9828L31.7802 25.6577C32.1616 26.0392 32.2757 26.613 32.0692 27.1115C31.8628 27.6099 31.3764 27.935 30.8369 27.9351H28.5021C28.4135 27.9347 28.3285 27.9698 28.2659 28.0324C28.2032 28.095 28.1682 28.1801 28.1686 28.2686V37.9413C28.1686 39.0466 27.2726 39.9426 26.1673 39.9426C25.0621 39.9426 24.1661 39.0466 24.1661 37.9413V28.2686C24.1664 28.1801 24.1314 28.095 24.0688 28.0324C24.0061 27.9698 23.9211 27.9347 23.8325 27.9351H21.4977C20.9558 27.9372 20.4665 27.6113 20.2596 27.1104C20.0527 26.6096 20.1692 26.0334 20.5545 25.6523L25.2241 20.9828Z" fill="white"/>
</mask>
<g mask="url(#mask0_1444_30572)">
</g>
</svg>
