<svg width="21" height="21" viewBox="0 0 21 21" fill="none" xmlns="http://www.w3.org/2000/svg">
<path d="M3.2085 12.5835C2.93223 12.5835 2.66728 12.6932 2.47193 12.8886C2.27658 13.0839 2.16683 13.3489 2.16683 13.6252V17.7918C2.16683 18.0681 2.27658 18.3331 2.47193 18.5284C2.66728 18.7238 2.93223 18.8335 3.2085 18.8335H17.7918C18.0681 18.8335 18.3331 18.7238 18.5284 18.5284C18.7238 18.3331 18.8335 18.0681 18.8335 17.7918V13.6252C18.8335 13.3489 18.7238 13.0839 18.5284 12.8886C18.3331 12.6932 18.0681 12.5835 17.7918 12.5835H3.2085ZM3.2085 10.5002C2.37969 10.5002 1.58484 10.1709 0.998787 9.58487C0.412736 8.99882 0.0834961 8.20397 0.0834961 7.37516L0.0834961 3.2085C0.0834961 2.37969 0.412736 1.58484 0.998787 0.998787C1.58484 0.412736 2.37969 0.0834961 3.2085 0.0834961L17.7918 0.0834961C18.6206 0.0834961 19.4155 0.412736 20.0015 0.998787C20.5876 1.58484 20.9168 2.37969 20.9168 3.2085V7.37516C20.9168 8.20397 20.5876 8.99882 20.0015 9.58487C19.4155 10.1709 18.6206 10.5002 17.7918 10.5002C18.6206 10.5002 19.4155 10.8294 20.0015 11.4155C20.5876 12.0015 20.9168 12.7964 20.9168 13.6252V17.7918C20.9168 18.6206 20.5876 19.4155 20.0015 20.0015C19.4155 20.5876 18.6206 20.9168 17.7918 20.9168H3.2085C2.37969 20.9168 1.58484 20.5876 0.998787 20.0015C0.412736 19.4155 0.0834961 18.6206 0.0834961 17.7918L0.0834961 13.6252C0.0834961 12.7964 0.412736 12.0015 0.998787 11.4155C1.58484 10.8294 2.37969 10.5002 3.2085 10.5002ZM3.2085 2.16683C2.93223 2.16683 2.66728 2.27658 2.47193 2.47193C2.27658 2.66728 2.16683 2.93223 2.16683 3.2085V7.37516C2.16683 7.65143 2.27658 7.91638 2.47193 8.11173C2.66728 8.30708 2.93223 8.41683 3.2085 8.41683H17.7918C18.0681 8.41683 18.3331 8.30708 18.5284 8.11173C18.7238 7.91638 18.8335 7.65143 18.8335 7.37516V3.2085C18.8335 2.93223 18.7238 2.66728 18.5284 2.47193C18.3331 2.27658 18.0681 2.16683 17.7918 2.16683H3.2085ZM5.29183 6.3335C5.01556 6.3335 4.75061 6.22375 4.55526 6.0284C4.35991 5.83305 4.25016 5.5681 4.25016 5.29183C4.25016 5.01556 4.35991 4.75061 4.55526 4.55526C4.75061 4.35991 5.01556 4.25016 5.29183 4.25016C5.5681 4.25016 5.83305 4.35991 6.0284 4.55526C6.22375 4.75061 6.3335 5.01556 6.3335 5.29183C6.3335 5.5681 6.22375 5.83305 6.0284 6.0284C5.83305 6.22375 5.5681 6.3335 5.29183 6.3335ZM8.41683 6.3335C8.14056 6.3335 7.87561 6.22375 7.68026 6.0284C7.48491 5.83305 7.37516 5.5681 7.37516 5.29183C7.37516 5.01556 7.48491 4.75061 7.68026 4.55526C7.87561 4.35991 8.14056 4.25016 8.41683 4.25016C8.6931 4.25016 8.95805 4.35991 9.1534 4.55526C9.34875 4.75061 9.4585 5.01556 9.4585 5.29183C9.4585 5.5681 9.34875 5.83305 9.1534 6.0284C8.95805 6.22375 8.6931 6.3335 8.41683 6.3335ZM8.41683 16.7502C8.14056 16.7502 7.87561 16.6404 7.68026 16.4451C7.48491 16.2497 7.37516 15.9848 7.37516 15.7085C7.37516 15.4322 7.48491 15.1673 7.68026 14.9719C7.87561 14.7766 8.14056 14.6668 8.41683 14.6668C8.6931 14.6668 8.95805 14.7766 9.1534 14.9719C9.34875 15.1673 9.4585 15.4322 9.4585 15.7085C9.4585 15.9848 9.34875 16.2497 9.1534 16.4451C8.95805 16.6404 8.6931 16.7502 8.41683 16.7502ZM5.29183 16.7502C5.01556 16.7502 4.75061 16.6404 4.55526 16.4451C4.35991 16.2497 4.25016 15.9848 4.25016 15.7085C4.25016 15.4322 4.35991 15.1673 4.55526 14.9719C4.75061 14.7766 5.01556 14.6668 5.29183 14.6668C5.5681 14.6668 5.83305 14.7766 6.0284 14.9719C6.22375 15.1673 6.3335 15.4322 6.3335 15.7085C6.3335 15.9848 6.22375 16.2497 6.0284 16.4451C5.83305 16.6404 5.5681 16.7502 5.29183 16.7502Z" fill="#1E1E1E" fill-opacity="0.8"/>
</svg>
