<svg width="14" height="14" viewBox="0 0 14 14" fill="none" xmlns="http://www.w3.org/2000/svg">
<path fill-rule="evenodd" clip-rule="evenodd" d="M13.5 12.9343C13.5 13.2465 13.2469 13.4995 12.9348 13.4995H1.06522C0.753056 13.4995 0.5 13.2465 0.5 12.9343V3.27699C0.500032 3.1271 0.559603 2.98336 0.665609 2.87738L2.87787 0.66512C2.98384 0.559114 3.12759 0.499544 3.27748 0.499512H12.9348C13.2469 0.499512 13.5 0.752568 13.5 1.06473V12.9343Z" stroke="#F1F7F9"/>
<path fill-rule="evenodd" clip-rule="evenodd" d="M2.76053 7.28271H11.2388C11.551 7.28271 11.804 7.53577 11.804 7.84793V13.5001H2.19531V7.84793C2.19531 7.53577 2.44837 7.28271 2.76053 7.28271Z" stroke="#F1F7F9"/>
<path fill-rule="evenodd" clip-rule="evenodd" d="M3.32617 0.499512H10.674V3.89082C10.674 4.20298 10.4209 4.45603 10.1088 4.45603H3.89139C3.57923 4.45603 3.32617 4.20298 3.32617 3.89082V0.499512Z" stroke="#F1F7F9"/>
<rect x="8.41309" y="1.62939" width="1.13043" height="1.69565" stroke="#F1F7F9"/>
<path d="M3.8916 8.97754H7.56551" stroke="#F1F7F9"/>
<path d="M3.8916 10.6733H10.109" stroke="#F1F7F9"/>
</svg>
