<svg width="25" height="25" viewBox="0 0 25 25" fill="none" xmlns="http://www.w3.org/2000/svg">
<path d="M20.8332 12.5002V5.98822C20.8332 5.82245 20.7673 5.66349 20.6501 5.54627L17.3704 2.26656C17.2532 2.14934 17.0942 2.0835 16.9285 2.0835H4.7915C4.44633 2.0835 4.1665 2.36332 4.1665 2.7085V22.2918C4.1665 22.637 4.44633 22.9168 4.7915 22.9168H11.4582" stroke="#1E1E1E" stroke-opacity="0.8" stroke-width="1.5" stroke-linecap="round" stroke-linejoin="round"/>
<path d="M8.3335 14.5833H11.4585M8.3335 10.4167H16.6668H8.3335ZM8.3335 6.25H12.5002H8.3335Z" stroke="#1E1E1E" stroke-opacity="0.8" stroke-width="1.5" stroke-linecap="round" stroke-linejoin="round"/>
<path d="M16.6665 5.62516V2.45178C16.6665 2.24838 16.8314 2.0835 17.0348 2.0835C17.1324 2.0835 17.2261 2.1223 17.2953 2.19136L20.7253 5.62146C20.7944 5.69053 20.8332 5.7842 20.8332 5.88188C20.8332 6.08528 20.6683 6.25016 20.4648 6.25016H17.2915C16.9463 6.25016 16.6665 5.97034 16.6665 5.62516Z" fill="#1E1E1E" fill-opacity="0.8" stroke="#1E1E1E" stroke-opacity="0.8" stroke-width="1.5" stroke-linecap="round" stroke-linejoin="round"/>
<path d="M18.7022 17.645L20.354 19.2969M18.7022 17.645L19.7438 16.6033C20.2 16.1472 20.9396 16.1472 21.3957 16.6033C21.8518 17.0595 21.8518 17.7991 21.3957 18.2552L20.354 19.2969L18.7022 17.645ZM18.7022 17.645L15.5864 20.7607C15.4303 20.9169 15.3278 21.1187 15.2938 21.3368L15.041 22.958L16.6622 22.7053C16.8804 22.6713 17.0821 22.5688 17.2382 22.4126L20.354 19.2969L18.7022 17.645Z" stroke="#1E1E1E" stroke-opacity="0.8" stroke-width="1.5" stroke-linecap="round" stroke-linejoin="round"/>
</svg>
