<svg width="40" height="40" viewBox="0 0 40 40" fill="none" xmlns="http://www.w3.org/2000/svg">
<path d="M5 0C3.67392 0 2.40215 0.526784 1.46447 1.46447C0.526784 2.40215 0 3.67392 0 5L0 35C0 36.3261 0.526784 37.5979 1.46447 38.5355C2.40215 39.4732 3.67392 40 5 40H35C36.3261 40 37.5979 39.4732 38.5355 38.5355C39.4732 37.5979 40 36.3261 40 35V5C40 3.67392 39.4732 2.40215 38.5355 1.46447C37.5979 0.526784 36.3261 0 35 0L5 0ZM13.74 15.0825C13.6594 15.0836 13.5795 15.0682 13.505 15.0374C13.4306 15.0065 13.3632 14.9608 13.307 14.903C13.2509 14.8451 13.2071 14.7765 13.1784 14.7012C13.1496 14.6259 13.1366 14.5455 13.14 14.465C13.375 10.2275 16.8425 8.75 20.0125 8.75C23.5025 8.75 26.6925 10.575 26.6925 14.35C26.6925 17.05 25.105 18.335 23.5825 19.4925C21.74 20.89 21.0575 21.4125 21.0575 23.2075V23.47C21.0575 23.6358 20.9917 23.7947 20.8744 23.9119C20.7572 24.0292 20.5983 24.095 20.4325 24.095H18.4075C18.2435 24.095 18.086 24.0305 17.9691 23.9155C17.8521 23.8004 17.7851 23.644 17.7825 23.48L17.7725 22.9375C17.6775 20.62 19.01 19.1925 20.6925 17.97C22.1675 16.86 23.105 16.13 23.105 14.5425C23.105 12.48 21.535 11.6225 19.82 11.6225C17.8125 11.6225 16.6875 12.8175 16.465 14.4575C16.42 14.8 16.145 15.0825 15.8 15.0825H13.7375H13.74ZM19.5525 31.19C18.0925 31.19 17.03 30.205 17.03 28.8725C17.03 27.4925 18.0925 26.5225 19.555 26.5225C21.0775 26.5225 22.125 27.4925 22.125 28.8725C22.125 30.205 21.075 31.19 19.5525 31.19Z" fill="#064089"/>
</svg>
