<svg width="19" height="21" viewBox="0 0 19 21" fill="none" xmlns="http://www.w3.org/2000/svg">
<path d="M3.25 2.16634V6.33301H15.75V2.16634H17.8406C18.4115 2.16634 18.875 2.62988 18.875 3.20072V19.882C18.875 20.4528 18.4115 20.9163 17.8406 20.9163H1.15937C0.588542 20.9163 0.125 20.4528 0.125 19.882V3.20072C0.125 2.62988 0.588542 2.16634 1.15937 2.16634H3.25ZM6.375 15.708H4.29167V17.7913H6.375V15.708ZM6.375 12.583H4.29167V14.6663H6.375V12.583ZM6.375 9.45801H4.29167V11.5413H6.375V9.45801ZM13.6667 0.0830078V4.24967H5.33333V0.0830078H13.6667Z" fill="#1E1E1E" fill-opacity="0.8"/>
</svg>
