<svg width="19" height="19" viewBox="0 0 19 19" fill="none" xmlns="http://www.w3.org/2000/svg">
<path d="M0.75 2C0.75 1.30964 1.30964 0.75 2 0.75H17C17.6904 0.75 18.25 1.30964 18.25 2V4.5C18.25 5.19036 17.6904 5.75 17 5.75H2C1.30964 5.75 0.75 5.19036 0.75 4.5V2Z" fill="#1E1E1E" fill-opacity="0.8"/>
<path d="M0.75 9.5C0.75 8.80964 1.30964 8.25 2 8.25H9.5C10.1904 8.25 10.75 8.80964 10.75 9.5V17C10.75 17.6904 10.1904 18.25 9.5 18.25H2C1.30964 18.25 0.75 17.6904 0.75 17V9.5Z" fill="#1E1E1E" fill-opacity="0.8"/>
<path d="M14.5 8.25C13.8096 8.25 13.25 8.80964 13.25 9.5V17C13.25 17.6904 13.8096 18.25 14.5 18.25H17C17.6904 18.25 18.25 17.6904 18.25 17V9.5C18.25 8.80964 17.6904 8.25 17 8.25H14.5Z" fill="#1E1E1E" fill-opacity="0.8"/>
</svg>
