<svg width="14" height="10" viewBox="0 0 14 10" fill="none" xmlns="http://www.w3.org/2000/svg">
<path fill-rule="evenodd" clip-rule="evenodd" d="M7.00007 1.24823C4.75922 1.21043 2.44166 2.77641 0.984642 4.38019C0.66788 4.73185 0.66788 5.26596 0.984642 5.61763C2.40998 7.1875 4.72087 8.78961 7.00007 8.75125C9.27927 8.78961 11.5907 7.1875 13.0172 5.61763C13.3339 5.26596 13.3339 4.73185 13.0172 4.38019C11.5585 2.77641 9.24091 1.21043 7.00007 1.24823Z" stroke="#064089" stroke-width="1.5"/>
<path fill-rule="evenodd" clip-rule="evenodd" d="M9.0848 4.99999C9.08449 6.15123 8.15103 7.08427 6.99979 7.08407C5.84855 7.08386 4.91543 6.15049 4.91553 4.99925C4.91563 3.84801 5.84892 2.9148 7.00016 2.91479C7.55318 2.91465 8.08359 3.13431 8.47458 3.5254C8.86557 3.9165 9.08509 4.44697 9.0848 4.99999Z" stroke="#064089" stroke-width="1.5"/>
</svg>
