<svg width="30" height="30" viewBox="0 0 30 30" fill="none" xmlns="http://www.w3.org/2000/svg">
<path d="M15 0C6.71625 0 0 6.71625 0 15C0 23.2837 6.71625 30 15 30C23.2837 30 30 23.2837 30 15C30 6.71625 23.2837 0 15 0ZM22.5 16.25H16.25V22.5C16.25 23.1912 15.69 23.75 15 23.75C14.31 23.75 13.75 23.1912 13.75 22.5V16.25H7.5C6.81 16.25 6.25 15.6912 6.25 15C6.25 14.3088 6.81 13.75 7.5 13.75H13.75V7.5C13.75 6.80875 14.31 6.25 15 6.25C15.69 6.25 16.25 6.80875 16.25 7.5V13.75H22.5C23.19 13.75 23.75 14.3088 23.75 15C23.75 15.6912 23.19 16.25 22.5 16.25Z" fill="#064089"/>
</svg>
