<svg width="22" height="21" viewBox="0 0 22 21" fill="none" xmlns="http://www.w3.org/2000/svg">
<path d="M13.106 9.5H17.059C17.605 9.5 18.047 9.948 18.047 10.5C18.047 11.052 17.605 11.5 17.059 11.5H12.118C11.9875 11.4992 11.8584 11.4727 11.7381 11.422C11.6178 11.3714 11.5086 11.2975 11.4169 11.2046C11.3252 11.1118 11.2526 11.0017 11.2034 10.8808C11.1542 10.7599 11.1292 10.6305 11.13 10.5V4.5C11.13 3.948 11.572 3.5 12.118 3.5C12.664 3.5 13.106 3.948 13.106 4.5V9.5ZM19.106 3.429C20.9659 5.31183 22.0061 7.85348 22 10.5C22 16.023 17.576 20.5 12.118 20.5V18.5C16.484 18.5 20.024 14.918 20.024 10.5C20.0291 8.38253 19.1965 6.34899 17.708 4.843C16.9786 4.10074 16.1086 3.51126 15.1488 3.10898C14.189 2.70669 13.1587 2.49967 12.118 2.5C8.57401 2.5 5.57401 4.86 4.57101 8.112L5.92301 7.189C6.03049 7.11562 6.1515 7.06436 6.27898 7.03821C6.40646 7.01205 6.53787 7.01153 6.66556 7.03665C6.79325 7.06178 6.91466 7.11206 7.02273 7.18457C7.1308 7.25708 7.22335 7.35037 7.29501 7.459C7.44169 7.67907 7.49591 7.94801 7.44595 8.20772C7.39599 8.46742 7.24587 8.69705 7.02801 8.847L3.75101 11.084C3.64354 11.1574 3.52253 11.2086 3.39505 11.2348C3.26757 11.2609 3.13616 11.2615 3.00847 11.2363C2.88078 11.2112 2.75937 11.1609 2.6513 11.0884C2.54323 11.0159 2.45068 10.9226 2.37901 10.814L0.170015 7.498C0.023024 7.27785 -0.0313723 7.00868 0.0185965 6.74873C0.0685652 6.48878 0.21888 6.25896 0.437015 6.109C0.544493 6.03562 0.665497 5.98436 0.792979 5.95821C0.920462 5.93205 1.05187 5.93153 1.17956 5.95665C1.30725 5.98178 1.42866 6.03206 1.53673 6.10457C1.6448 6.17708 1.73735 6.27037 1.80901 6.379L2.64801 7.638C3.86301 3.51 7.64301 0.5 12.118 0.5C14.847 0.5 17.318 1.62 19.106 3.429Z" fill="#1E1E1E" fill-opacity="0.8"/>
</svg>
