<svg width="21" height="21" viewBox="0 0 21 21" fill="none" xmlns="http://www.w3.org/2000/svg">
<path d="M19.5332 14.416L19.5303 14.4136C19.0454 13.9653 18.418 13.8599 17.96 13.7827L17.9263 13.7769C17.4844 13.7041 17.4146 13.6548 17.2144 13.4756C17.0952 13.3696 16.9531 13.1997 16.9531 12.9902C16.9531 12.7808 17.0952 12.6108 17.2139 12.5049L18.6924 11.1929C19.958 10.0742 20.6553 8.57275 20.6553 6.96484C20.6553 5.35693 19.9595 3.85547 18.6924 2.73633C16.9399 1.19385 14.542 0.34375 11.936 0.34375C8.92383 0.34375 5.91016 1.48486 3.66406 3.47412C1.52197 5.36719 0.34375 7.90332 0.34375 10.6147C0.34375 13.3262 1.52344 15.8623 3.66406 17.7549C4.72607 18.6943 5.98291 19.4238 7.40039 19.9238C8.76375 20.402 10.1973 20.6496 11.6421 20.6562H11.7305C14.709 20.6562 17.5454 19.6519 19.5132 17.9023C19.9868 17.4844 20.2529 16.8853 20.2622 16.2148C20.2725 15.5229 20 14.8501 19.5332 14.416ZM3.46875 8.15625C3.46875 7.84722 3.56039 7.54512 3.73208 7.28817C3.90377 7.03122 4.1478 6.83095 4.43331 6.71269C4.71882 6.59443 5.03298 6.56348 5.33608 6.62377C5.63917 6.68406 5.91758 6.83288 6.1361 7.0514C6.35462 7.26992 6.50344 7.54833 6.56373 7.85142C6.62402 8.15452 6.59307 8.46868 6.47481 8.75419C6.35655 9.0397 6.15628 9.28373 5.89933 9.45542C5.64238 9.62711 5.34028 9.71875 5.03125 9.71875C4.61685 9.71875 4.21942 9.55413 3.9264 9.2611C3.63337 8.96808 3.46875 8.57065 3.46875 8.15625ZM5.42188 14.748C5.11284 14.748 4.81075 14.6564 4.5538 14.4847C4.29685 14.313 4.09658 14.069 3.97831 13.7835C3.86005 13.498 3.82911 13.1838 3.8894 12.8807C3.94969 12.5776 4.0985 12.2992 4.31702 12.0807C4.53554 11.8622 4.81395 11.7134 5.11705 11.6531C5.42014 11.5928 5.73431 11.6237 6.01982 11.742C6.30533 11.8602 6.54936 12.0605 6.72105 12.3175C6.89274 12.5744 6.98438 12.8765 6.98438 13.1855C6.98438 13.5999 6.81976 13.9974 6.52673 14.2904C6.2337 14.5834 5.83628 14.748 5.42188 14.748ZM7.375 5.03125C7.375 4.72222 7.46664 4.42012 7.63833 4.16317C7.81002 3.90622 8.05405 3.70595 8.33956 3.58769C8.62507 3.46943 8.93923 3.43848 9.24233 3.49877C9.54542 3.55906 9.82384 3.70788 10.0424 3.9264C10.2609 4.14492 10.4097 4.42333 10.47 4.72642C10.5303 5.02952 10.4993 5.34368 10.3811 5.62919C10.2628 5.9147 10.0625 6.15873 9.80558 6.33042C9.54863 6.50211 9.24653 6.59375 8.9375 6.59375C8.5231 6.59375 8.12567 6.42913 7.83265 6.1361C7.53962 5.84308 7.375 5.44565 7.375 5.03125ZM10.5 18.2637C10.0365 18.2637 9.58331 18.1262 9.19788 17.8687C8.81246 17.6111 8.51205 17.2451 8.33466 16.8168C8.15726 16.3886 8.11085 15.9173 8.20128 15.4627C8.29172 15.008 8.51494 14.5904 8.84272 14.2626C9.1705 13.9349 9.58811 13.7116 10.0428 13.6212C10.4974 13.5308 10.9687 13.5772 11.3969 13.7546C11.8252 13.932 12.1912 14.2324 12.4488 14.6178C12.7063 15.0032 12.8438 15.4564 12.8438 15.9199C12.8438 16.5415 12.5968 17.1377 12.1573 17.5772C11.7177 18.0167 11.1216 18.2637 10.5 18.2637ZM14.0156 6.59375C13.7066 6.59375 13.4045 6.50211 13.1475 6.33042C12.8906 6.15873 12.6903 5.9147 12.5721 5.62919C12.4538 5.34368 12.4229 5.02952 12.4831 4.72642C12.5434 4.42333 12.6923 4.14492 12.9108 3.9264C13.1293 3.70788 13.4077 3.55906 13.7108 3.49877C14.0139 3.43848 14.3281 3.46943 14.6136 3.58769C14.8991 3.70595 15.1431 3.90622 15.3148 4.16317C15.4865 4.42012 15.5781 4.72222 15.5781 5.03125C15.5781 5.44565 15.4135 5.84308 15.1205 6.1361C14.8275 6.42913 14.43 6.59375 14.0156 6.59375Z" fill="#1E1E1E" fill-opacity="0.8"/>
</svg>
