<svg width="19" height="19" viewBox="0 0 19 19" fill="none" xmlns="http://www.w3.org/2000/svg">
<path d="M3.25 0.75C1.86929 0.75 0.75 1.86929 0.75 3.25V5.75C0.75 7.13071 1.86929 8.25 3.25 8.25H5.75C7.13071 8.25 8.25 7.13071 8.25 5.75V3.25C8.25 1.86929 7.13071 0.75 5.75 0.75H3.25Z" fill="#1E1E1E" fill-opacity="0.8"/>
<path d="M3.25 10.75C1.86929 10.75 0.75 11.8693 0.75 13.25V15.75C0.75 17.1307 1.86929 18.25 3.25 18.25H5.75C7.13071 18.25 8.25 17.1307 8.25 15.75V13.25C8.25 11.8693 7.13071 10.75 5.75 10.75H3.25Z" fill="#1E1E1E" fill-opacity="0.8"/>
<path d="M10.75 3.25C10.75 1.86929 11.8693 0.75 13.25 0.75H15.75C17.1307 0.75 18.25 1.86929 18.25 3.25V5.75C18.25 7.13071 17.1307 8.25 15.75 8.25H13.25C11.8693 8.25 10.75 7.13071 10.75 5.75V3.25Z" fill="#1E1E1E" fill-opacity="0.8"/>
<path d="M14.5 10.75C15.1904 10.75 15.75 11.3096 15.75 12V13.25H17C17.6904 13.25 18.25 13.8096 18.25 14.5C18.25 15.1904 17.6904 15.75 17 15.75H15.75V17C15.75 17.6904 15.1904 18.25 14.5 18.25C13.8096 18.25 13.25 17.6904 13.25 17V15.75H12C11.3096 15.75 10.75 15.1904 10.75 14.5C10.75 13.8096 11.3096 13.25 12 13.25H13.25V12C13.25 11.3096 13.8096 10.75 14.5 10.75Z" fill="#1E1E1E" fill-opacity="0.8"/>
</svg>
