<svg width="25" height="25" viewBox="0 0 25 25" fill="none" xmlns="http://www.w3.org/2000/svg">
<path d="M15.625 21.0938C15.625 21.301 15.7073 21.4997 15.8538 21.6462C16.0003 21.7927 16.199 21.875 16.4062 21.875H17.9688C18.176 21.875 18.3747 21.7927 18.5212 21.6462C18.6677 21.4997 18.75 21.301 18.75 21.0938V11.7188C18.75 11.5115 18.6677 11.3128 18.5212 11.1663C18.3747 11.0198 18.176 10.9375 17.9688 10.9375H16.4062C16.199 10.9375 16.0003 11.0198 15.8538 11.1663C15.7073 11.3128 15.625 11.5115 15.625 11.7188V21.0938ZM11.7188 21.875C11.5115 21.875 11.3128 21.7927 11.1663 21.6462C11.0198 21.4997 10.9375 21.301 10.9375 21.0938V14.8438C10.9375 14.6365 11.0198 14.4378 11.1663 14.2913C11.3128 14.1448 11.5115 14.0625 11.7188 14.0625H13.2812C13.4885 14.0625 13.6872 14.1448 13.8337 14.2913C13.9802 14.4378 14.0625 14.6365 14.0625 14.8438V21.0938C14.0625 21.301 13.9802 21.4997 13.8337 21.6462C13.6872 21.7927 13.4885 21.875 13.2812 21.875H11.7188ZM7.03125 21.875C6.82405 21.875 6.62534 21.7927 6.47882 21.6462C6.33231 21.4997 6.25 21.301 6.25 21.0938V17.9688C6.25 17.7615 6.33231 17.5628 6.47882 17.4163C6.62534 17.2698 6.82405 17.1875 7.03125 17.1875H8.59375C8.80095 17.1875 8.99966 17.2698 9.14618 17.4163C9.29269 17.5628 9.375 17.7615 9.375 17.9688V21.0938C9.375 21.301 9.29269 21.4997 9.14618 21.6462C8.99966 21.7927 8.80095 21.875 8.59375 21.875H7.03125Z" fill="#1E1E1E" fill-opacity="0.8"/>
<path d="M21.875 21.875V7.03125L14.8438 0H6.25C5.4212 0 4.62634 0.32924 4.04029 0.915291C3.45424 1.50134 3.125 2.2962 3.125 3.125V21.875C3.125 22.7038 3.45424 23.4987 4.04029 24.0847C4.62634 24.6708 5.4212 25 6.25 25H18.75C19.5788 25 20.3737 24.6708 20.9597 24.0847C21.5458 23.4987 21.875 22.7038 21.875 21.875ZM14.8438 4.6875C14.8438 5.3091 15.0907 5.90524 15.5302 6.34478C15.9698 6.78432 16.5659 7.03125 17.1875 7.03125H20.3125V21.875C20.3125 22.2894 20.1479 22.6868 19.8549 22.9799C19.5618 23.2729 19.1644 23.4375 18.75 23.4375H6.25C5.8356 23.4375 5.43817 23.2729 5.14515 22.9799C4.85212 22.6868 4.6875 22.2894 4.6875 21.875V3.125C4.6875 2.7106 4.85212 2.31317 5.14515 2.02015C5.43817 1.72712 5.8356 1.5625 6.25 1.5625H14.8438V4.6875Z" fill="#1E1E1E" fill-opacity="0.8"/>
</svg>
