<svg width="21" height="21" viewBox="0 0 21 21" fill="none" xmlns="http://www.w3.org/2000/svg">
<path d="M3.33441 16.5456C5.45069 15.3494 7.89562 14.6667 10.5 14.6667C13.1044 14.6667 15.5493 15.3494 17.6656 16.5456M13.625 8.41667C13.625 10.1426 12.2259 11.5417 10.5 11.5417C8.77411 11.5417 7.375 10.1426 7.375 8.41667C7.375 6.69078 8.77411 5.29167 10.5 5.29167C12.2259 5.29167 13.625 6.69078 13.625 8.41667ZM19.875 10.5C19.875 15.6777 15.6777 19.875 10.5 19.875C5.32233 19.875 1.125 15.6777 1.125 10.5C1.125 5.32233 5.32233 1.125 10.5 1.125C15.6777 1.125 19.875 5.32233 19.875 10.5Z" stroke="#1E1E1E" stroke-opacity="0.8" stroke-width="2" stroke-linecap="round" stroke-linejoin="round"/>
</svg>
